<?xml version="1.0" encoding="UTF-8" standalone="no"?>
<!-- Created with Inkscape (http://www.inkscape.org/) -->

<svg
   width="129.91162mm"
   height="92.808456mm"
   viewBox="0 0 129.91162 92.808457"
   version="1.1"
   id="svg1"
   xml:space="preserve"
   xmlns="http://www.w3.org/2000/svg"
   xmlns:svg="http://www.w3.org/2000/svg"><defs
     id="defs1" /><g
     id="layer1"
     transform="translate(-29.704854,-85.119057)"><path
       style="fill:#000000;fill-rule:nonzero;stroke:none;stroke-width:0.264583;stroke-dasharray:none;stroke-opacity:1"
       d="m 29.705027,166.99042 c 0.04873,0.089 0.103901,0.19679 0.168564,0.32853 0.05976,0.12176 0.12537,0.25928 0.201497,0.42045 0.125359,0.26538 0.314399,0.67047 0.507267,1.06935 0.339733,0.70262 0.836901,1.69281 1.462857,2.71533 0.551921,0.90159 1.258879,1.92011 2.123634,2.84215 0.787194,0.83935 1.745823,1.64282 2.888259,2.19316 0.542907,0.26153 1.133004,0.46867 1.77152,0.59347 0.619257,0.12103 1.284708,0.16472 1.996664,0.10488 1.368824,-0.11504 2.904158,-0.6122 4.610084,-1.6714 1.63141,-1.01294 3.428251,-2.54554 5.400835,-4.7727 1.905549,-2.15148 3.986408,-4.96384 6.253434,-8.61272 1.028709,-1.57285 2.127101,-3.46822 3.22859,-5.56116 1.064413,-2.0225 2.120894,-4.20934 3.091564,-6.40407 0.955317,-2.16001 1.822791,-4.3173 2.521475,-6.30266 0.34895,-0.99157 0.656469,-1.94213 0.912123,-2.83047 0.256524,-0.89136 0.463331,-1.7287 0.60716,-2.48846 0.275364,-1.59159 0.382278,-2.94743 0.337807,-4.05901 -0.02251,-0.56278 -0.08452,-1.08216 -0.19185,-1.54929 -0.107335,-0.46718 -0.267807,-0.91648 -0.506439,-1.31215 -0.12156,-0.20156 -0.267297,-0.39562 -0.442095,-0.57132 -0.176548,-0.17745 -0.381443,-0.33475 -0.61571,-0.45922 -0.236526,-0.12567 -0.490441,-0.21112 -0.755057,-0.25418 -0.265089,-0.0431 -0.526442,-0.0414 -0.776512,-0.006 -0.498446,0.07 -0.947483,0.27119 -1.331163,0.51541 -0.391807,0.24939 -0.757272,0.56993 -1.095263,0.93049 -0.690527,0.73664 -1.347963,1.72774 -1.954726,2.90405 -0.635698,1.2324 -1.232206,2.69982 -1.767202,4.36881 -1.171279,3.65397 -2.013953,8.15883 -2.416287,13.28695 -0.143731,1.80924 -0.175785,3.73173 -0.12132,5.59983 0.06116,2.09786 0.230535,4.12278 0.475152,5.96331 0.290124,2.18293 0.679757,4.06701 1.120345,5.63427 0.04411,0.15693 0.08869,0.31053 0.133687,0.46085 0.536504,1.79233 1.142031,3.14402 1.761807,4.1584 0.428046,0.70057 0.876144,1.26225 1.335618,1.70509 0.532284,0.513 1.096525,0.88235 1.680399,1.10951 0.632638,0.24612 1.286043,0.32435 1.939059,0.23405 0.621276,-0.0859 1.243056,-0.32374 1.871559,-0.72048 0.54845,-0.3462 1.139663,-0.83693 1.781492,-1.52546 0.545741,-0.58545 1.162266,-1.35059 1.851234,-2.36436 0.724767,-1.06644 1.575495,-2.47527 2.551062,-4.363 0.508174,-0.98332 1.051073,-2.09938 1.629009,-3.36953 1.052414,-2.494 2.719904,-6.21293 5.255319,-11.92909 1.910833,-4.30803 4.306316,-9.73425 6.80693,-15.53801 0.520874,-1.20544 1.139733,-2.22481 1.815351,-3.05485 0.659627,-0.81039 1.3666,-1.43187 2.074715,-1.86662 0.694283,-0.42625 1.378508,-0.66618 2.006876,-0.73616 0.615883,-0.0686 1.168461,0.0254 1.636385,0.2597 0.456041,0.22835 0.851652,0.60113 1.148013,1.13551 0.294736,0.53145 0.500244,1.24019 0.546404,2.14761 0.04576,0.89959 -0.06571,1.98865 -0.398773,3.27285 -0.33058,1.27461 -0.877773,2.73468 -1.698008,4.37974 -2.659691,5.38948 -5.048789,10.11033 -7.062659,14.15116 -2.009065,4.03119 -3.64966,7.39591 -4.820748,10.09547 -0.587898,1.35521 -1.064284,2.55822 -1.411465,3.60516 -0.345873,1.04299 -0.580723,1.98131 -0.653707,2.78888 -0.03704,0.40986 -0.03539,0.81607 0.02889,1.20339 0.06501,0.39175 0.197912,0.786 0.438453,1.1423 0.120712,0.1788 0.264357,0.34161 0.430629,0.48483 0.16655,0.14345 0.348808,0.26123 0.541842,0.3552 0.385725,0.18777 0.795336,0.27321 1.204327,0.29791 0.346767,0.0185 0.684151,-0.0323 1.003635,-0.14429 0.317198,-0.1112 0.598625,-0.27623 0.845732,-0.46867 0.24671,-0.19213 0.464736,-0.41578 0.658431,-0.6531 0.194722,-0.23858 0.372617,-0.50052 0.536537,-0.77623 0.327782,-0.55133 0.621885,-1.1955 0.892838,-1.89397 0.274442,-0.70747 0.534973,-1.49646 0.787339,-2.34126 0.508821,-1.70329 1.007429,-3.71324 1.522902,-5.8246 0.535679,-2.19412 1.083176,-4.47099 1.716097,-6.83815 1.322953,-4.9479 2.89233,-9.7881 5.047508,-13.92763 1.087685,-2.08916 2.294319,-3.93902 3.643736,-5.50201 0.04135,-0.0479 0.08285,-0.0955 0.124504,-0.14293 1.42054,-1.61624 3.01295,-2.93539 4.82467,-3.87842 2.05968,-1.07637 3.8193,-1.52078 5.22426,-1.51643 0.69709,0.002 1.30447,0.11439 1.82637,0.31149 0.52008,0.19642 0.9744,0.48416 1.36237,0.86077 0.38976,0.37835 0.72772,0.86136 0.99289,1.46056 0.26636,0.60191 0.45887,1.32077 0.55176,2.15882 0.18741,1.69071 -0.0369,3.81345 -0.81097,6.3029 -0.15798,0.54448 -0.36381,1.21384 -0.60345,1.97959 -0.23996,0.76675 -0.51724,1.64101 -0.8129,2.57873 -0.60196,1.90919 -1.28374,4.09303 -1.96081,6.40912 -0.68804,2.35365 -1.36004,4.8061 -1.93055,7.20637 -0.58282,2.4521 -1.05404,4.82605 -1.33115,6.97553 -0.23025,1.64567 -0.31766,3.00593 -0.26826,4.09687 0.0249,0.54922 0.0848,1.03877 0.18219,1.46716 0.0975,0.4289 0.23561,0.80933 0.42363,1.12981 0.19028,0.32432 0.43495,0.59218 0.74106,0.77822 0.30927,0.18797 0.65136,0.27412 1.00608,0.2769 0.35071,0.003 0.70884,-0.0756 1.06513,-0.2079 0.35848,-0.1331 0.73003,-0.32632 1.11128,-0.56752 0.76546,-0.48426 1.60873,-1.18674 2.51289,-2.06574 0.9147,-0.88924 1.90547,-1.97269 2.95738,-3.22174 2.13349,-2.53335 4.53602,-5.76877 7.09438,-9.50132 5.29066,-7.71884 11.25266,-17.56734 17.06694,-28.04181 5.24683,-9.45221 10.35657,-19.38018 14.91277,-28.99318 0.77602,-1.63731 1.5308,-3.2544 2.26344,-4.848755 1.71318,-3.691691 2.40501,-6.53886 2.56401,-8.599833 0.0896,-1.160669 0.0168,-2.146108 -0.18284,-2.960803 -0.10465,-0.426963 -0.24621,-0.815522 -0.42397,-1.162832 -0.1818,-0.355213 -0.40318,-0.670562 -0.6644,-0.938991 -0.26604,-0.273387 -0.57105,-0.495575 -0.9106,-0.659251 -0.34287,-0.165272 -0.71241,-0.266745 -1.09885,-0.30504 -0.77188,-0.07649 -1.58789,0.100254 -2.39327,0.487539 -0.78777,0.378815 -1.59163,0.970979 -2.37842,1.779039 -0.75283,0.773176 -1.51086,1.765519 -2.23389,3.00163 -1.68297,2.917406 -3.22682,6.893163 -4.75568,12.081407 -1.33997,4.54724 -2.60563,9.79236 -4.03868,16.22089 -0.3268,1.46596 -0.65587,2.96361 -0.99736,4.52675 -1.82864,8.3704 -4.56536,21.42893 -7.83681,32.35711 -0.096,0.32106 -0.2726,0.90625 -0.51321,1.68552 -0.23025,0.7457 -0.52655,1.69323 -0.87002,2.76465 -0.64578,2.01447 -1.49667,4.58654 -2.39233,7.06052 -0.42988,1.18742 -0.87295,2.36018 -1.30895,3.43668 -0.42634,1.05266 -0.84135,2.00192 -1.22556,2.77582 -0.18864,0.37996 -0.36433,0.70646 -0.52501,0.97623 -0.16243,0.27273 -0.29143,0.45697 -0.38711,0.575 -0.0438,0.054 -0.074,0.0845 -0.0748,0.0877 -7.9e-4,0.003 0.0275,-0.0229 0.11818,-0.0642 0.0866,-0.0394 0.25085,-0.0977 0.47243,-0.0949 0.11101,0.001 0.22628,0.0182 0.34067,0.0532 0.11385,0.0348 0.21406,0.0837 0.299,0.13881 0.0335,0.0239 0.0585,0.0507 0.0714,0.0707 0.0122,0.0188 0.006,0.0195 -0.008,-0.008 -0.0318,-0.0635 -0.0817,-0.22425 -0.0997,-0.52068 -0.0176,-0.28934 -0.002,-0.66116 0.0568,-1.12133 0.0584,-0.45393 0.15665,-0.97196 0.29511,-1.55192 0.27472,-1.15065 0.69582,-2.49654 1.23528,-3.99718 0.53169,-1.47902 1.16942,-3.0838 1.87672,-4.76689 1.39955,-3.33035 3.02828,-6.86646 4.58964,-10.2501 0.76329,-1.65414 1.5078,-3.26633 2.17681,-4.75049 0.66506,-1.47541 1.26471,-2.84452 1.74779,-4.03544 0.56043,-1.37666 1.32955,-2.60533 2.2384,-3.67428 0.90509,-1.06453 1.94593,-1.96718 3.04745,-2.694 1.09806,-0.72454 2.24767,-1.26853 3.36772,-1.62331 1.11933,-0.35455 2.19045,-0.51432 3.13723,-0.48862 0.9475,0.0257 1.73668,0.23555 2.33476,0.58667 0.2973,0.17455 0.5515,0.38609 0.7612,0.63472 0.20945,0.24834 0.38359,0.5444 0.5104,0.89768 0.12758,0.35539 0.20975,0.77509 0.226,1.27089 0.0163,0.49682 -0.0341,1.0669 -0.17113,1.715 -0.27544,1.30257 -0.89397,2.88685 -1.97163,4.7669 -1.16912,2.06428 -2.35889,3.73437 -3.58932,5.12852 -1.24233,1.40763 -2.53467,2.5435 -3.89904,3.51795 -1.38711,0.99071 -2.85544,1.8194 -4.42534,2.5922 -1.59858,0.78691 -3.31367,1.5207 -5.12747,2.29239 a 0.17973779,0.54982312 79.754623 0 0 -0.12744,0.0688 c -0.17887,0.12726 -0.33106,0.28048 -0.45898,0.45116 -0.12794,0.1707 -0.23118,0.35823 -0.31401,0.55527 -0.16535,0.39333 -0.25635,0.8412 -0.29462,1.31186 -0.0772,0.94973 0.0532,2.08374 0.33035,3.26853 0.28366,1.21264 0.72796,2.50867 1.29694,3.77803 0.58067,1.29541 1.29259,2.56664 2.10619,3.71163 0.83137,1.16997 1.76894,2.20866 2.7883,3.01643 1.04473,0.82788 2.17517,1.41286 3.36451,1.64877 0.60639,0.12028 1.22353,0.14885 1.84702,0.0754 0.63247,-0.0745 1.26608,-0.25338 1.89749,-0.5424 1.29233,-0.59154 2.56555,-1.63966 3.80836,-3.18263 1.15682,-1.51538 2.11368,-3.08284 2.7916,-4.32801 0.41213,-0.75698 0.73894,-1.4262 0.98789,-1.98221 0.31035,-0.69312 0.50456,-1.21957 0.62479,-1.60319 -0.15279,0.36768 -0.39342,0.87803 -0.75393,1.53922 -0.28916,0.53033 -0.66334,1.17164 -1.12265,1.89033 -0.75568,1.18242 -1.8051,2.671 -3.03206,4.07154 -1.22223,1.47226 -2.43277,2.41416 -3.60468,2.91937 -0.57074,0.24604 -1.13117,0.38807 -1.67943,0.43875 -0.54025,0.0499 -1.07187,0.0115 -1.59361,-0.10611 -1.02384,-0.23075 -2.01923,-0.76981 -2.9583,-1.55044 -0.91849,-0.76353 -1.77508,-1.75087 -2.54046,-2.87814 -0.74835,-1.10218 -1.40172,-2.32699 -1.92926,-3.57482 -0.51741,-1.22386 -0.90922,-2.45955 -1.14591,-3.59681 -0.2338,-1.12334 -0.30997,-2.122 -0.22064,-2.89119 0.044,-0.37891 0.12584,-0.68039 0.23287,-0.905 0.0526,-0.11039 0.10924,-0.19787 0.16684,-0.26612 0.0368,-0.0436 0.074,-0.0793 0.11126,-0.10874 1.80366,-0.70632 3.55708,-1.39399 5.20184,-2.13937 1.64119,-0.74376 3.22121,-1.56513 4.7369,-2.5755 1.49635,-0.99748 2.93077,-2.17932 4.31573,-3.66124 1.37057,-1.46654 2.68429,-3.21779 3.96341,-5.36354 1.17224,-1.98911 1.91584,-3.76436 2.27701,-5.33013 0.18077,-0.78372 0.26749,-1.52255 0.26064,-2.21423 -0.007,-0.69201 -0.10747,-1.33854 -0.30237,-1.93305 -0.19523,-0.59553 -0.48225,-1.12993 -0.85192,-1.59669 -0.3693,-0.46631 -0.8123,-0.85406 -1.30889,-1.16576 -0.99031,-0.62161 -2.17751,-0.9321 -3.42407,-0.99534 -1.25053,-0.0634 -2.59426,0.11948 -3.93856,0.51669 -1.34975,0.39881 -2.71696,1.01849 -4.01565,1.8438 -1.30396,0.82865 -2.54502,1.8685 -3.63408,3.10941 -1.09481,1.24745 -2.03597,2.69808 -2.73185,4.33991 -0.48638,1.13825 -1.09148,2.46423 -1.77215,3.9197 -0.68379,1.46214 -1.44371,3.05463 -2.22827,4.70284 -1.59797,3.35702 -3.28684,6.92202 -4.74586,10.28845 -0.73878,1.70461 -1.41569,3.35172 -1.98861,4.88688 -0.57891,1.5512 -1.05692,3.00197 -1.38507,4.29199 -0.16602,0.65263 -0.29654,1.2752 -0.38177,1.85728 -0.0854,0.58353 -0.12882,1.14932 -0.10916,1.67832 0.0196,0.52756 0.10367,1.0731 0.31191,1.57996 0.10654,0.2593 0.24829,0.51498 0.43529,0.75204 0.1892,0.23984 0.41727,0.451 0.68392,0.62262 0.14503,0.0932 0.30715,0.17045 0.48464,0.22411 0.17818,0.0539 0.35898,0.0801 0.53719,0.0817 0.35658,0.003 0.66217,-0.0916 0.89653,-0.20163 0.23311,-0.1095 0.42709,-0.2485 0.58096,-0.37828 0.15711,-0.13251 0.29821,-0.27732 0.42342,-0.42062 0.24994,-0.28606 0.48479,-0.62181 0.70289,-0.97167 0.22342,-0.35838 0.44702,-0.76039 0.66816,-1.18936 0.44923,-0.8714 0.91212,-1.90057 1.36701,-2.99096 0.46791,-1.12159 0.93718,-2.33162 1.38655,-3.54227 0.93582,-2.52114 1.81768,-5.13218 2.48153,-7.1643 0.35389,-1.08328 0.65865,-2.04129 0.89538,-2.79647 0.24756,-0.78977 0.42875,-1.38323 0.52918,-1.71825 3.33867,-11.14956 6.0424,-24.24045 7.82134,-32.631 0.33279,-1.56962 0.64791,-3.05455 0.96273,-4.52349 1.38014,-6.4396 2.55043,-11.59435 3.77823,-16.08781 1.4002,-5.124345 2.75397,-8.909186 4.17067,-11.631361 0.57009,-1.116098 1.15162,-1.991752 1.70245,-2.66255 0.5778,-0.70365 1.12813,-1.189997 1.61687,-1.505353 0.49855,-0.321678 0.93253,-0.465958 1.2871,-0.493858 0.17801,-0.01401 0.3467,2.34e-4 0.5064,0.04389 0.15854,0.04334 0.31849,0.118471 0.47568,0.236626 0.15529,0.116729 0.31081,0.277801 0.4562,0.494238 0.14237,0.211935 0.27418,0.475843 0.38422,0.798149 0.21094,0.617853 0.33985,1.445915 0.30929,2.506018 -0.0543,1.884765 -0.61886,4.610592 -2.2573,8.244463 -0.72566,1.592942 -1.47395,3.208522 -2.24402,4.844242 -4.52154,9.60432 -9.61248,19.51937 -14.85239,28.95185 -5.80809,10.45527 -11.77254,20.26482 -17.06879,27.92855 -2.56179,3.70694 -4.95886,6.89878 -7.07872,9.37952 -1.04495,1.22285 -2.01895,2.26865 -2.90787,3.115 -0.88354,0.84123 -1.67076,1.47357 -2.34861,1.88664 -0.33591,0.20471 -0.63563,0.34977 -0.89861,0.44063 -0.26274,0.0908 -0.47432,0.12243 -0.64053,0.11549 -0.16043,-0.007 -0.28017,-0.049 -0.37754,-0.11403 -0.0986,-0.0658 -0.2033,-0.1747 -0.30278,-0.35658 -0.10072,-0.18416 -0.19273,-0.43761 -0.26262,-0.77843 -0.0694,-0.33854 -0.11445,-0.75052 -0.12874,-1.24407 -0.0285,-0.98356 0.066,-2.25611 0.30701,-3.85276 0.33702,-2.0755 0.8705,-4.38216 1.52222,-6.78031 0.63733,-2.34523 1.37936,-4.74726 2.14026,-7.05479 0.74798,-2.26835 1.50421,-4.41526 2.1804,-6.28754 0.33425,-0.9255 0.64586,-1.77545 0.92565,-2.53609 0.27459,-0.7465 0.52562,-1.42616 0.72257,-1.96793 0.91516,-2.67649 1.28977,-5.12814 1.13128,-7.24874 -0.0791,-1.05818 -0.29186,-2.0444 -0.64486,-2.93548 -0.35299,-0.89106 -0.84591,-1.68557 -1.47965,-2.35198 -0.63429,-0.66698 -1.39438,-1.1893 -2.25911,-1.54942 -0.86268,-0.35927 -1.81052,-0.54939 -2.81714,-0.57579 -2.00882,-0.0527 -4.25484,0.54468 -6.62103,1.76006 -2.18781,1.12789 -4.070292,2.69423 -5.691237,4.53399 -0.04753,0.054 -0.09484,0.10813 -0.141925,0.16255 -1.533708,1.77239 -2.862553,3.82578 -4.02741,6.07301 -2.296481,4.43035 -3.912331,9.52562 -5.222148,14.54997 -0.627792,2.40815 -1.168064,4.73043 -1.680787,6.91523 -0.498991,2.12629 -0.961311,4.07601 -1.425211,5.70932 -0.228946,0.80608 -0.455646,1.52579 -0.684795,2.14906 -0.228615,0.62181 -0.450642,1.12269 -0.666757,1.50829 -0.106505,0.19003 -0.205908,0.34183 -0.296856,0.46133 -0.09097,0.11952 -0.165794,0.1966 -0.221773,0.24578 -0.05431,0.0477 -0.08316,0.0632 -0.08961,0.0693 -0.0064,0.006 0.0083,0.007 0.0048,0.0106 -0.149296,9e-4 -0.218473,-0.0178 -0.233368,-0.0164 -0.0073,7.1e-4 -0.0034,0.006 0.0014,0.0156 0.0047,0.009 0.0091,0.0197 0.0062,0.0232 -0.0046,0.005 -0.03887,-0.0238 -0.07075,-0.14852 -0.03152,-0.12328 -0.05225,-0.31184 -0.04193,-0.57942 0.02081,-0.53968 0.161957,-1.28485 0.450826,-2.26278 0.284797,-0.96414 0.699168,-2.10899 1.239692,-3.44454 1.078133,-2.66388 2.626983,-6.01081 4.569661,-10.07795 2.226148,-4.6606 4.632804,-9.59369 6.858953,-14.25429 0.830945,-1.75495 1.387453,-3.34272 1.713574,-4.75955 0.328272,-1.42618 0.424832,-2.68674 0.327863,-3.77407 -0.09792,-1.09799 -0.394096,-2.02677 -0.855004,-2.7654 -0.468512,-0.75082 -1.097732,-1.28911 -1.824526,-1.60209 -0.731993,-0.31522 -1.541714,-0.39132 -2.350379,-0.26099 -0.821759,0.13244 -1.649557,0.47649 -2.437203,1.00156 -0.805153,0.53673 -1.574283,1.2661 -2.269773,2.17102 -0.713121,0.92787 -1.34853,2.0396 -1.872638,3.32423 -2.390011,5.85036 -4.700754,11.29528 -6.58663,15.61771 -2.459885,5.63806 -4.255636,9.51031 -5.436274,11.82936 -0.592253,1.24771 -1.149555,2.33772 -1.672156,3.29215 -1.0047,1.83488 -1.882123,3.16617 -2.629408,4.14706 -0.710343,0.9324 -1.335116,1.59002 -1.870695,2.05814 -0.631194,0.5517 -1.167167,0.86518 -1.601887,1.03654 -0.49677,0.19582 -0.885726,0.21646 -1.178791,0.16731 -0.301523,-0.0506 -0.553335,-0.18325 -0.783797,-0.36607 -0.21663,-0.17184 -0.459847,-0.42526 -0.720486,-0.79222 -0.227033,-0.31963 -0.481057,-0.7449 -0.748822,-1.31194 -0.387485,-0.82057 -0.823194,-1.98009 -1.241403,-3.59852 -0.03505,-0.13563 -0.06999,-0.27463 -0.104771,-0.41704 -0.348081,-1.42529 -0.673683,-3.16937 -0.921885,-5.22617 -0.20919,-1.73351 -0.357602,-3.64708 -0.411862,-5.63237 -0.04839,-1.77037 -0.02058,-3.57045 0.10266,-5.24067 0.369661,-4.93291 1.137761,-9.17873 2.166114,-12.55917 0.468963,-1.5416 0.97641,-2.84964 1.490406,-3.91024 0.498302,-1.02822 0.976263,-1.76873 1.38809,-2.25165 0.199654,-0.23412 0.360178,-0.38004 0.477072,-0.4697 0.115208,-0.0884 0.15264,-0.0943 0.105229,-0.0962 -0.02588,-0.001 -0.06926,-0.002 -0.125665,-0.0157 -0.05669,-0.0134 -0.111393,-0.0358 -0.157857,-0.0654 -0.04499,-0.0287 -0.0712,-0.0572 -0.0787,-0.072 -0.0072,-0.0141 0.0049,-0.0122 0.02818,0.0146 0.04986,0.0574 0.130902,0.20035 0.207676,0.45717 0.07545,0.2524 0.139427,0.58897 0.176678,1.01881 0.07402,0.8541 0.03703,2.00899 -0.17154,3.48381 -0.08057,0.66269 -0.220103,1.42674 -0.414374,2.27608 -0.193005,0.8438 -0.437601,1.76124 -0.726164,2.73329 -0.578192,1.94769 -1.32447,4.08643 -2.164413,6.25045 -0.85216,2.19551 -1.791011,4.39227 -2.738503,6.42979 -0.980678,2.10889 -1.95804,4.02063 -2.863774,5.60936 -2.187649,3.63155 -4.181316,6.4197 -5.991223,8.54839 -1.873769,2.2038 -3.555859,3.70695 -5.056368,4.70387 -1.565108,1.03984 -2.947542,1.5389 -4.161838,1.69481 -0.633752,0.0814 -1.229508,0.0703 -1.789232,-0.0114 -0.577722,-0.0844 -1.121198,-0.24465 -1.631364,-0.46015 -1.077737,-0.45524 -2.017747,-1.16175 -2.819552,-1.93876 -0.878467,-0.85131 -1.616096,-1.81208 -2.20537,-2.67756 -0.664563,-0.97606 -1.212639,-1.94013 -1.589496,-2.61796 -0.227678,-0.40951 -0.415518,-0.75538 -0.572094,-1.03545 -0.08689,-0.15543 -0.162971,-0.28878 -0.232066,-0.40541 -0.07497,-0.12656 -0.139452,-0.22956 -0.196383,-0.3135 z"
       id="path11" /><ellipse
       style="fill:none;fill-rule:nonzero;stroke:#000000;stroke-width:1.838;stroke-dasharray:none;stroke-opacity:1"
       id="path1"
       cx="67.117302"
       cy="121.79061"
       rx="2.890219"
       ry="3.2916381" /></g></svg>
